<?xml version="1.0" encoding="UTF-8"?>
<svg version="1.1" xmlns="http://www.w3.org/2000/svg" width="163" height="96">
<path d="M0 0 C53.79 0 107.58 0 163 0 C163 31.68 163 63.36 163 96 C109.21 96 55.42 96 0 96 C0 64.32 0 32.64 0 0 Z " fill="#FEFEFE" transform="translate(0,0)"/>
<path d="M0 0 C1.32 0 2.64 0 4 0 C4 0.66 4 1.32 4 2 C4.66 2 5.32 2 6 2 C6 3.32 6 4.64 6 6 C6.66 6 7.32 6 8 6 C8 6.66 8 7.32 8 8 C8.66 8 9.32 8 10 8 C10 9.32 10 10.64 10 12 C10.66 12 11.32 12 12 12 C12 13.32 12 14.64 12 16 C12.66 16 13.32 16 14 16 C14 16.66 14 17.32 14 18 C14.66 18 15.32 18 16 18 C16 19.32 16 20.64 16 22 C17.32 22 18.64 22 20 22 C20 23.32 20 24.64 20 26 C19.34 26 18.68 26 18 26 C18 26.66 18 27.32 18 28 C16.68 28 15.36 28 14 28 C14 27.34 14 26.68 14 26 C13.34 26 12.68 26 12 26 C12 25.34 12 24.68 12 24 C11.34 24 10.68 24 10 24 C10 22.68 10 21.36 10 20 C9.34 20 8.68 20 8 20 C8 19.34 8 18.68 8 18 C7.34 18 6.68 18 6 18 C6 22.62 6 27.24 6 32 C5.34 32 4.68 32 4 32 C4 38.6 4 45.2 4 52 C3.34 52 2.68 52 2 52 C2 55.96 2 59.92 2 64 C1.34 64 0.68 64 0 64 C0 67.3 0 70.6 0 74 C-0.66 74 -1.32 74 -2 74 C-2 74.66 -2 75.32 -2 76 C-2.66 76 -3.32 76 -4 76 C-4 75.34 -4 74.68 -4 74 C-4.66 74 -5.32 74 -6 74 C-6 70.7 -6 67.4 -6 64 C-5.34 64 -4.68 64 -4 64 C-4 60.04 -4 56.08 -4 52 C-3.34 52 -2.68 52 -2 52 C-2 44.08 -2 36.16 -2 28 C-1.34 28 -0.68 28 0 28 C0 24.7 0 21.4 0 18 C-0.66 18 -1.32 18 -2 18 C-2 19.32 -2 20.64 -2 22 C-2.66 22 -3.32 22 -4 22 C-4 22.66 -4 23.32 -4 24 C-4.66 24 -5.32 24 -6 24 C-6 24.66 -6 25.32 -6 26 C-6.66 26 -7.32 26 -8 26 C-8 26.66 -8 27.32 -8 28 C-8.66 28 -9.32 28 -10 28 C-10 28.66 -10 29.32 -10 30 C-11.98 30 -13.96 30 -16 30 C-16 29.34 -16 28.68 -16 28 C-16.66 28 -17.32 28 -18 28 C-18 26.68 -18 25.36 -18 24 C-16.68 24 -15.36 24 -14 24 C-14 23.34 -14 22.68 -14 22 C-13.34 22 -12.68 22 -12 22 C-12 21.34 -12 20.68 -12 20 C-11.34 20 -10.68 20 -10 20 C-10 19.34 -10 18.68 -10 18 C-9.34 18 -8.68 18 -8 18 C-8 17.34 -8 16.68 -8 16 C-7.34 16 -6.68 16 -6 16 C-6 14.68 -6 13.36 -6 12 C-5.34 12 -4.68 12 -4 12 C-4 10.02 -4 8.04 -4 6 C-3.34 6 -2.68 6 -2 6 C-2 5.34 -2 4.68 -2 4 C-1.34 4 -0.68 4 0 4 C0 2.68 0 1.36 0 0 Z " fill="#0E0E0E" transform="translate(31,15)"/>
<path d="M0 0 C31.68 0 63.36 0 96 0 C96 0.66 96 1.32 96 2 C96.66 2 97.32 2 98 2 C98 3.32 98 4.64 98 6 C65.66 6 33.32 6 0 6 C0 5.34 0 4.68 0 4 C-0.66 4 -1.32 4 -2 4 C-2 3.34 -2 2.68 -2 2 C-1.34 2 -0.68 2 0 2 C0 1.34 0 0.68 0 0 Z " fill="#010101" transform="translate(57,68)"/>
<path d="M0 0 C29.04 0 58.08 0 88 0 C88 0.66 88 1.32 88 2 C88.66 2 89.32 2 90 2 C90 3.32 90 4.64 90 6 C60.3 6 30.6 6 0 6 C0 5.34 0 4.68 0 4 C-0.66 4 -1.32 4 -2 4 C-2 3.34 -2 2.68 -2 2 C-1.34 2 -0.68 2 0 2 C0 1.34 0 0.68 0 0 Z " fill="#020202" transform="translate(61,38)"/>
<path d="M0 0 C24.42 0 48.84 0 74 0 C74 0.66 74 1.32 74 2 C75.98 2 77.96 2 80 2 C80 2.66 80 3.32 80 4 C80.66 4 81.32 4 82 4 C82 5.32 82 6.64 82 8 C78.7 8 75.4 8 72 8 C72 7.34 72 6.68 72 6 C48.24 6 24.48 6 0 6 C0 5.34 0 4.68 0 4 C-0.66 4 -1.32 4 -2 4 C-2 3.34 -2 2.68 -2 2 C-1.34 2 -0.68 2 0 2 C0 1.34 0 0.68 0 0 Z " fill="#030303" transform="translate(59,12)"/>
</svg>
