<?xml version="1.0" encoding="UTF-8"?>
<svg version="1.1" xmlns="http://www.w3.org/2000/svg" width="163" height="96">
<path d="M0 0 C1.98 0 3.96 0 6 0 C6.02684312 2.81256281 6.04676188 5.62487241 6.0625 8.4375 C6.07087891 9.23994141 6.07925781 10.04238281 6.08789062 10.86914062 C6.0965143 12.91295221 6.0522815 14.95683902 6 17 C5.67 17.33 5.34 17.66 5 18 C4.79162581 19.82906235 4.63250341 21.66388134 4.5 23.5 C4.11111111 28.88888889 4.11111111 28.88888889 3 30 C2.84417697 31.34015221 2.74955858 32.68758903 2.68359375 34.03515625 C2.64169922 34.84404297 2.59980469 35.65292969 2.55664062 36.48632812 C2.51732422 37.33646484 2.47800781 38.18660156 2.4375 39.0625 C2.39431641 39.91650391 2.35113281 40.77050781 2.30664062 41.65039062 C2.20023298 43.76672037 2.09958269 45.88333813 2 48 C1.34 48 0.68 48 0 48 C0 50.64 0 53.28 0 56 C0.66 56 1.32 56 2 56 C2 54.68 2 53.36 2 52 C2.66 52 3.32 52 4 52 C4 51.34 4 50.68 4 50 C4.66 50 5.32 50 6 50 C6 49.34 6 48.68 6 48 C6.66 48 7.32 48 8 48 C8 47.34 8 46.68 8 46 C11.3 46 14.6 46 18 46 C18 47.98 18 49.96 18 52 C16.68 52 15.36 52 14 52 C14 52.66 14 53.32 14 54 C13.34 54 12.68 54 12 54 C12 54.66 12 55.32 12 56 C11.34 56 10.68 56 10 56 C10 56.66 10 57.32 10 58 C9.34 58 8.68 58 8 58 C7.7834375 58.928125 7.7834375 58.928125 7.5625 59.875 C7 62 7 62 6 64 C5.34 64 4.68 64 4 64 C4 65.98 4 67.96 4 70 C3.34 70 2.68 70 2 70 C1.34 71.98 0.68 73.96 0 76 C-1.98 76 -3.96 76 -6 76 C-6 74.68 -6 73.36 -6 72 C-6.66 72 -7.32 72 -8 72 C-8 71.34 -8 70.68 -8 70 C-8.66 70 -9.32 70 -10 70 C-10 68.68 -10 67.36 -10 66 C-10.66 66 -11.32 66 -12 66 C-12 64.02 -12 62.04 -12 60 C-12.66 60 -13.32 60 -14 60 C-14 59.34 -14 58.68 -14 58 C-14.66 58 -15.32 58 -16 58 C-16.66 57.01 -17.32 56.02 -18 55 C-18.66 54.67 -19.32 54.34 -20 54 C-20 52.02 -20 50.04 -20 48 C-17.36 48 -14.72 48 -12 48 C-12 48.66 -12 49.32 -12 50 C-11.34 50 -10.68 50 -10 50 C-10 51.32 -10 52.64 -10 54 C-9.34 54 -8.68 54 -8 54 C-8 54.66 -8 55.32 -8 56 C-7.34 56 -6.68 56 -6 56 C-6 51.38 -6 46.76 -6 42 C-5.34 42 -4.68 42 -4 42 C-4 34.74 -4 27.48 -4 20 C-3.34 20 -2.68 20 -2 20 C-2 16.04 -2 12.08 -2 8 C-1.34 8 -0.68 8 0 8 C0 5.36 0 2.72 0 0 Z " fill="#050505" transform="translate(35,10)"/>
<path d="M0 0 C33 0 66 0 100 0 C100 1.98 100 3.96 100 6 C67 6 34 6 0 6 C0 4.02 0 2.04 0 0 Z " fill="#010101" transform="translate(55,68)"/>
<path d="M0 0 C30.36 0 60.72 0 92 0 C92 1.98 92 3.96 92 6 C61.64 6 31.28 6 0 6 C0 4.02 0 2.04 0 0 Z " fill="#010101" transform="translate(59,38)"/>
<path d="M0 0 C25.74 0 51.48 0 78 0 C78 0.66 78 1.32 78 2 C79.98 2 81.96 2 84 2 C84 3.98 84 5.96 84 8 C80.7 8 77.4 8 74 8 C74 7.34 74 6.68 74 6 C49.58 6 25.16 6 0 6 C0 4.02 0 2.04 0 0 Z " fill="#020202" transform="translate(57,12)"/>
<path d="M0 0 C2.64 0 5.28 0 8 0 C8 0.66 8 1.32 8 2 C6.02 2 4.04 2 2 2 C2 3.32 2 4.64 2 6 C1.34 6 0.68 6 0 6 C0 4.02 0 2.04 0 0 Z " fill="#141414" transform="translate(15,58)"/>
<path d="M0 0 C0.66 0 1.32 0 2 0 C2 1.32 2 2.64 2 4 C1.34 4 0.68 4 0 4 C0 4.66 0 5.32 0 6 C-0.66 6 -1.32 6 -2 6 C-2.33 6.66 -2.66 7.32 -3 8 C-3.33 6.68 -3.66 5.36 -4 4 C-3.34 4 -2.68 4 -2 4 C-2 3.34 -2 2.68 -2 2 C-1.34 2 -0.68 2 0 2 C0 1.34 0 0.68 0 0 Z " fill="#130E10" transform="translate(41,58)"/>
</svg>
